{
  "source": "C:\\Users\\Peter\\Desktop\\stuff\\MIUN\\quantitative_research\\video_compression\\videos\\BVI-HD\\BVI-HD_CDVL_videos\\ORIG\\BubblesPitcher_1920x1080_60fps.mp4",
  "output": "C:\\Users\\Peter\\Desktop\\stuff\\MIUN\\quantitative_research\\video_compression\\compressed_videos\\BVI-HD\\vp9\\1.5\\BubblesPitcher_1920x1080_60fps_vp9.webm",
  "codec": "vp9",
  "ok": "Input #0, mov,mp4,m4a,3gp,3g2,mj2, from 'C:\\Users\\Peter\\Desktop\\stuff\\MIUN\\quantitative_research\\video_compression\\videos\\BVI-HD\\BVI-HD_CDVL_videos\\ORIG\\BubblesPitcher_1920x1080_60fps.mp4':\n  Metadata:\n    major_brand     : isom\n    minor_version   : 512\n    compatible_brands: isomiso2avc1mp41\n    encoder         : Lavf54.28.101\n  Duration: 00:00:05.00, start: 0.000000, bitrate: 188849 kb/s\n  Stream #0:0[0x1](und): Video: h264 (High 4:4:4 Predictive) (avc1 / 0x31637661), yuv420p(progressive), 1920x1080, 188844 kb/s, 60 fps, 60 tbr, 60 tbn (default)\n    Metadata:\n      handler_name    : VideoHandler\n      vendor_id       : [0][0][0][0]\n[out#0/webm @ 000001ada830cc80] Codec AVOption b:a (set bitrate (in bits/s)) has not been used for any stream. The most likely reason is either wrong type (e.g. a video option with no video streams) or that it is a private option of some decoder which was not actually used for any stream.\nStream mapping:\n  Stream #0:0 -> #0:0 (h264 (native) -> vp9 (libvpx-vp9))\nPress [q] to stop, [?] for help\n[libvpx-vp9 @ 000001ada8c00240] v1.15.2-100-g40561f514\nOutput #0, webm, to 'C:\\Users\\Peter\\Desktop\\stuff\\MIUN\\quantitative_research\\video_compression\\compressed_videos\\BVI-HD\\vp9\\1.5\\BubblesPitcher_1920x1080_60fps_vp9.webm':\n  Metadata:\n    major_brand     : isom\n    minor_version   : 512\n    compatible_brands: isomiso2avc1mp41\n    encoder         : Lavf62.3.100\n  Stream #0:0(und): Video: vp9, yuv420p(tv, progressive), 1920x1080, q=2-31, 1500 kb/s, 60 fps, 1k tbn (default)\n    Metadata:\n      encoder         : Lavc62.11.100 libvpx-vp9\n      handler_name    : VideoHandler\n      vendor_id       : [0][0][0][0]\n    Side data:\n      cpb: bitrate max/min/avg: 0/0/0 buffer size: 1500000 vbv_delay: N/A\nframe=    6 fps=0.0 q=38.0 size=       1KiB time=00:00:00.10 bitrate=  50.6kbits/s speed=0.194x elapsed=0:00:00.51    \nframe=   14 fps= 13 q=27.0 size=       1KiB time=00:00:00.23 bitrate=  21.7kbits/s speed=0.223x elapsed=0:00:01.04    \nframe=   24 fps= 15 q=35.0 size=       1KiB time=00:00:00.40 bitrate=  12.7kbits/s speed=0.257x elapsed=0:00:01.55    \nframe=   33 fps= 16 q=40.0 size=       1KiB time=00:00:00.55 bitrate=   9.2kbits/s speed=0.264x elapsed=0:00:02.08    \nframe=   40 fps= 15 q=40.0 size=       1KiB time=00:00:00.66 bitrate=   7.6kbits/s speed=0.255x elapsed=0:00:02.60    \nframe=   48 fps= 15 q=42.0 size=       1KiB time=00:00:00.80 bitrate=   6.3kbits/s speed=0.256x elapsed=0:00:03.12    \nframe=   54 fps= 15 q=43.0 size=       1KiB time=00:00:00.90 bitrate=   5.6kbits/s speed=0.248x elapsed=0:00:03.63    \nframe=   62 fps= 15 q=43.0 size=       1KiB time=00:00:01.03 bitrate=   4.9kbits/s speed=0.249x elapsed=0:00:04.15    \nframe=   71 fps= 15 q=42.0 size=       1KiB time=00:00:01.18 bitrate=   4.3kbits/s speed=0.252x elapsed=0:00:04.69    \nframe=   78 fps= 15 q=45.0 size=       1KiB time=00:00:01.30 bitrate=   3.9kbits/s speed=0.25x elapsed=0:00:05.19    \nframe=   86 fps= 15 q=44.0 size=       1KiB time=00:00:01.43 bitrate=   3.5kbits/s speed=0.251x elapsed=0:00:05.72    \nframe=   94 fps= 15 q=45.0 size=       1KiB time=00:00:01.56 bitrate=   3.2kbits/s speed=0.251x elapsed=0:00:06.25    \nframe=  102 fps= 15 q=46.0 size=       1KiB time=00:00:01.70 bitrate=   3.0kbits/s speed=0.251x elapsed=0:00:06.77    \nframe=  110 fps= 15 q=47.0 size=       1KiB time=00:00:01.83 bitrate=   2.8kbits/s speed=0.251x elapsed=0:00:07.29    \nframe=  118 fps= 15 q=45.0 size=       1KiB time=00:00:01.96 bitrate=   2.6kbits/s speed=0.251x elapsed=0:00:07.83    \nframe=  127 fps= 15 q=45.0 size=       1KiB time=00:00:02.11 bitrate=   2.4kbits/s speed=0.254x elapsed=0:00:08.34    \nframe=  135 fps= 15 q=52.0 size=     256KiB time=00:00:02.25 bitrate= 932.1kbits/s speed=0.253x elapsed=0:00:08.88    \nframe=  141 fps= 15 q=55.0 size=     256KiB time=00:00:02.35 bitrate= 892.4kbits/s speed=0.25x elapsed=0:00:09.40    \nframe=  147 fps= 15 q=58.0 size=     256KiB time=00:00:02.45 bitrate= 856.0kbits/s speed=0.247x elapsed=0:00:09.92    \nframe=  152 fps= 15 q=43.0 size=     256KiB time=00:00:02.53 bitrate= 827.8kbits/s speed=0.243x elapsed=0:00:10.43    \nframe=  158 fps= 14 q=59.0 size=     256KiB time=00:00:02.63 bitrate= 796.4kbits/s speed=0.24x elapsed=0:00:10.95    \nframe=  163 fps= 14 q=60.0 size=     256KiB time=00:00:02.71 bitrate= 772.0kbits/s speed=0.237x elapsed=0:00:11.46    \nframe=  168 fps= 14 q=62.0 size=     256KiB time=00:00:02.80 bitrate= 749.0kbits/s speed=0.233x elapsed=0:00:11.99    \nframe=  171 fps= 14 q=62.0 size=     256KiB time=00:00:02.85 bitrate= 735.8kbits/s speed=0.228x elapsed=0:00:12.50    \nframe=  175 fps= 13 q=63.0 size=     256KiB time=00:00:02.90 bitrate= 723.2kbits/s speed=0.223x elapsed=0:00:13.02    \nframe=  177 fps= 13 q=63.0 size=     256KiB time=00:00:02.95 bitrate= 710.9kbits/s speed=0.217x elapsed=0:00:13.60    \nframe=  182 fps= 13 q=51.0 size=     256KiB time=00:00:03.03 bitrate= 691.4kbits/s speed=0.215x elapsed=0:00:14.13    \nframe=  187 fps= 13 q=63.0 size=     256KiB time=00:00:03.11 bitrate= 672.9kbits/s speed=0.213x elapsed=0:00:14.66    \nframe=  193 fps= 13 q=63.0 size=     256KiB time=00:00:03.21 bitrate= 652.0kbits/s speed=0.212x elapsed=0:00:15.18    \nframe=  197 fps= 13 q=63.0 size=     256KiB time=00:00:03.28 bitrate= 638.7kbits/s speed=0.209x elapsed=0:00:15.73    \nframe=  201 fps= 12 q=63.0 size=     256KiB time=00:00:03.35 bitrate= 626.0kbits/s speed=0.206x elapsed=0:00:16.27    \nframe=  205 fps= 12 q=63.0 size=     256KiB time=00:00:03.41 bitrate= 613.8kbits/s speed=0.203x elapsed=0:00:16.81    \nframe=  209 fps= 12 q=63.0 size=     256KiB time=00:00:03.48 bitrate= 602.1kbits/s speed=0.201x elapsed=0:00:17.33    \nframe=  213 fps= 12 q=63.0 size=     256KiB time=00:00:03.55 bitrate= 590.7kbits/s speed=0.199x elapsed=0:00:17.86    \nframe=  217 fps= 12 q=63.0 size=     256KiB time=00:00:03.61 bitrate= 579.9kbits/s speed=0.196x elapsed=0:00:18.42    \nframe=  219 fps= 12 q=63.0 size=     256KiB time=00:00:03.65 bitrate= 574.6kbits/s speed=0.192x elapsed=0:00:19.00    \nframe=  222 fps= 11 q=63.0 size=     256KiB time=00:00:03.70 bitrate= 566.8kbits/s speed=0.189x elapsed=0:00:19.61    \nframe=  224 fps= 11 q=52.0 size=     256KiB time=00:00:03.73 bitrate= 561.7kbits/s speed=0.185x elapsed=0:00:20.15    \nframe=  227 fps= 11 q=63.0 size=     256KiB time=00:00:03.78 bitrate= 554.3kbits/s speed=0.183x elapsed=0:00:20.71    \nframe=  229 fps= 11 q=63.0 size=     256KiB time=00:00:03.81 bitrate= 549.5kbits/s speed=0.18x elapsed=0:00:21.24    \nframe=  232 fps= 11 q=63.0 size=     256KiB time=00:00:03.86 bitrate= 542.4kbits/s speed=0.177x elapsed=0:00:21.79    \nframe=  235 fps= 11 q=63.0 size=     256KiB time=00:00:03.91 bitrate= 535.4kbits/s speed=0.176x elapsed=0:00:22.31    \nframe=  237 fps= 10 q=63.0 size=     256KiB time=00:00:03.95 bitrate= 530.9kbits/s speed=0.173x elapsed=0:00:22.84    \nframe=  241 fps= 10 q=63.0 size=     256KiB time=00:00:04.00 bitrate= 524.3kbits/s speed=0.171x elapsed=0:00:23.37    \nframe=  243 fps= 10 q=63.0 size=     256KiB time=00:00:04.05 bitrate= 517.8kbits/s speed=0.169x elapsed=0:00:23.95    \nframe=  246 fps= 10 q=63.0 size=     256KiB time=00:00:04.10 bitrate= 511.5kbits/s speed=0.167x elapsed=0:00:24.47    \nframe=  248 fps=9.9 q=63.0 size=     256KiB time=00:00:04.13 bitrate= 507.4kbits/s speed=0.165x elapsed=0:00:25.12    \nframe=  251 fps=9.8 q=63.0 size=     256KiB time=00:00:04.18 bitrate= 501.3kbits/s speed=0.163x elapsed=0:00:25.65    \nframe=  254 fps=9.7 q=63.0 size=     256KiB time=00:00:04.23 bitrate= 495.4kbits/s speed=0.162x elapsed=0:00:26.19    \nframe=  257 fps=9.6 q=51.0 size=     256KiB time=00:00:04.26 bitrate= 491.5kbits/s speed=0.159x elapsed=0:00:26.75    \nframe=  259 fps=9.4 q=63.0 size=     512KiB time=00:00:04.31 bitrate= 971.7kbits/s speed=0.157x elapsed=0:00:27.41    \nframe=  262 fps=9.4 q=63.0 size=     512KiB time=00:00:04.36 bitrate= 960.5kbits/s speed=0.156x elapsed=0:00:27.95    \nframe=  265 fps=9.3 q=63.0 size=     512KiB time=00:00:04.41 bitrate= 949.7kbits/s speed=0.155x elapsed=0:00:28.48    \nframe=  268 fps=9.2 q=63.0 size=     512KiB time=00:00:04.46 bitrate= 939.0kbits/s speed=0.154x elapsed=0:00:29.05    \nframe=  271 fps=9.1 q=63.0 size=     512KiB time=00:00:04.51 bitrate= 928.6kbits/s speed=0.152x elapsed=0:00:29.80    \nframe=  274 fps=9.0 q=63.0 size=     512KiB time=00:00:04.56 bitrate= 918.5kbits/s speed=0.15x elapsed=0:00:30.50    \nframe=  276 fps=8.9 q=62.0 size=     512KiB time=00:00:04.60 bitrate= 911.8kbits/s speed=0.148x elapsed=0:00:31.09    \nframe=  276 fps=8.7 q=62.0 size=     512KiB time=00:00:04.60 bitrate= 911.8kbits/s speed=0.145x elapsed=0:00:31.67    \nframe=  276 fps=8.5 q=62.0 size=     512KiB time=00:00:04.60 bitrate= 911.8kbits/s speed=0.142x elapsed=0:00:32.37    \nframe=  276 fps=8.4 q=62.0 size=     512KiB time=00:00:04.60 bitrate= 911.8kbits/s speed=0.139x elapsed=0:00:33.02    \nframe=  276 fps=8.2 q=62.0 size=     512KiB time=00:00:04.60 bitrate= 911.8kbits/s speed=0.137x elapsed=0:00:33.67    \nframe=  276 fps=8.1 q=62.0 size=     512KiB time=00:00:04.60 bitrate= 911.8kbits/s speed=0.134x elapsed=0:00:34.25    \nframe=  276 fps=7.9 q=62.0 size=     512KiB time=00:00:04.60 bitrate= 911.8kbits/s speed=0.131x elapsed=0:00:34.99    \nframe=  276 fps=7.7 q=62.0 size=     512KiB time=00:00:04.60 bitrate= 911.8kbits/s speed=0.129x elapsed=0:00:35.71    \nframe=  276 fps=7.6 q=62.0 size=     512KiB time=00:00:04.60 bitrate= 911.8kbits/s speed=0.127x elapsed=0:00:36.36    \nframe=  276 fps=7.5 q=62.0 size=     512KiB time=00:00:04.60 bitrate= 911.8kbits/s speed=0.125x elapsed=0:00:36.87    \n[out#0/webm @ 000001ada830cc80] video:889KiB audio:0KiB subtitle:0KiB other streams:0KiB global headers:0KiB muxing overhead: 0.310202%\nframe=  300 fps=8.1 q=62.0 Lsize=     891KiB time=00:00:05.00 bitrate=1460.6kbits/s speed=0.135x elapsed=0:00:37.02    \n",
  "seconds": 38.93718218803406,
  "probe_out": {}
}